PathFileType  4	(X/Y/Z) C:\Users\antoi\Documents\MyRepositories\mobilecap\ResultsAnalysis
DataRate	CameraRate	NumFrames	NumMarkers	Units	OrigDataRate	OrigDataStartFrame	OrigNumFrames
100.0	100.0	6	51	mm	100.0	154	245
Frame#	Time	r_knee			r_shank_antsup			r_ankle			r_calc			r_5meta			r_toe			L_knee			L_shank_antsup			L_ankle			L_calc			L_5meta			L_toe			r_sh2			r_sh3			r_sh4			L_sh2			L_sh3			r_thigh1			r_thigh2			r_thigh3			r_thigh4			r_thigh5			L_thigh1			L_thigh2			L_thigh3			L_thigh4			r.ASIS			r.PSIS			L.ASIS			L.PSIS			C7			R_Shoulder			L_Shoulder			R_Sternum			L_Sternum			R_humerus			R_elbow_med			R_elbow_lat			R_forearm			R_wrist_radius			R_wrist_ulna			L_humerus			L_elbow_med			L_elbow_lat			L_forearm			L_wrist_radius			L_wrist_ulna			R_HJC			L_HJC			R_HJC_reg			L_HJC_reg			
		X1	Y1	Z1	X2	Y2	Z2	X3	Y3	Z3	X4	Y4	Z4	X5	Y5	Z5	X6	Y6	Z6	X7	Y7	Z7	X8	Y8	Z8	X9	Y9	Z9	X10	Y10	Z10	X11	Y11	Z11	X12	Y12	Z12	X13	Y13	Z13	X14	Y14	Z14	X15	Y15	Z15	X16	Y16	Z16	X17	Y17	Z17	X18	Y18	Z18	X19	Y19	Z19	X20	Y20	Z20	X21	Y21	Z21	X22	Y22	Z22	X23	Y23	Z23	X24	Y24	Z24	X25	Y25	Z25	X26	Y26	Z26	X27	Y27	Z27	X28	Y28	Z28	X29	Y29	Z29	X30	Y30	Z30	X31	Y31	Z31	X32	Y32	Z32	X33	Y33	Z33	X34	Y34	Z34	X35	Y35	Z35	X36	Y36	Z36	X37	Y37	Z37	X38	Y38	Z38	X39	Y39	Z39	X40	Y40	Z40	X41	Y41	Z41	X42	Y42	Z42	X43	Y43	Z43	X44	Y44	Z44	X45	Y45	Z45	X46	Y46	Z46	X47	Y47	Z47	X48	Y48	Z48	X49	Y49	Z49	X50	Y50	Z50	X51	Y51	Z51	

154	1.53000000	-63.00445	495.64669	-377.61977	-51.97136	367.58922	-400.85586	-292.43718	134.59804	-448.05528	-367.69566	122.08862	-514.55644	-203.47364	44.27330	-393.37208	-143.31315	59.13716	-455.94439	-55.78270	472.95518	-825.28318	-30.58425	361.38332	-797.55358	-278.62065	114.56871	-779.77454	-356.54193	96.29253	-719.96920	-170.72618	36.36372	-813.32381	-126.37191	54.08339	-747.04072	-103.80948	271.26381	-437.13092	-113.73928	382.11185	-359.28631	-163.50900	277.74129	-380.15226	-98.83429	394.90158	-848.27623	-136.82804	278.99170	-843.28265	-179.06515	717.79518	-429.24536	-87.98312	650.49829	-420.86766	-89.74448	613.63061	-365.17188	-231.74172	647.32577	-355.86218	-134.10198	582.71317	-352.33073	-193.09551	697.53107	-823.98425	-76.27571	619.52342	-822.54917	-252.57103	610.56223	-863.75287	-140.43547	532.07535	-860.59149	-302.41084	799.48996	-471.57917	-406.15318	893.98240	-572.57513	-253.14553	754.93035	-727.62868	-402.17458	892.38052	-672.23883	63.18503	1110.56420	-625.09656	45.61466	1008.13845	-442.19439	88.14261	991.63724	-773.57742	88.59882	944.82267	-587.23587	89.73590	942.70915	-630.13305	-34.59782	888.91409	-355.77425	-225.29108	739.65829	-331.84335	-180.75728	768.07108	-260.61476	-73.74627	626.60973	-279.02954	-19.85668	524.61628	-288.62466	-40.79843	509.66004	-255.49815	64.58540	855.12168	-876.29645	-52.68455	657.99288	-906.84142	-3.50007	684.85603	-968.18635	115.70399	578.24619	-904.46265	186.63768	489.21063	-902.80039	174.69313	472.06324	-946.87419	-389.93051	754.52583	-509.02346	-364.63195	718.94748	-717.90305	-379.95119	745.60864	-508.49373	-372.98816	742.80519	-682.91811	
155	1.54000000	-61.44052	497.47296	-379.66479	-49.83304	368.76871	-402.43394	-291.22082	136.61325	-448.10941	-366.48059	124.40327	-514.39128	-202.97125	44.94339	-393.76571	-142.62881	59.14840	-456.10340	-53.42142	474.98705	-822.52632	-28.81783	363.14811	-794.13549	-277.50363	116.69739	-779.59019	-355.51564	98.91990	-720.42730	-170.21230	36.81942	-813.18760	-126.06266	54.16455	-746.87174	-102.27661	272.52209	-438.22360	-111.93328	384.08974	-361.25977	-162.03112	280.14536	-381.00454	-96.78314	396.73329	-845.05278	-134.98072	281.24758	-841.89087	-174.55573	722.21150	-429.81550	-84.21019	653.02322	-422.10619	-86.56846	617.25160	-366.95673	-227.48940	651.20641	-357.31642	-131.38066	584.89618	-353.75959	-187.67512	701.15861	-823.40032	-73.45905	620.76855	-821.74549	-247.90055	614.55520	-862.06510	-136.81062	534.63401	-857.88454	-295.65170	805.80322	-471.63349	-403.20572	900.88516	-573.01273	-247.92673	763.32865	-728.46716	-399.19454	898.95140	-672.70773	63.25691	1123.14107	-625.83547	45.81745	1021.47480	-442.72114	90.79443	1006.40836	-773.44011	90.50243	958.11341	-587.56059	91.84756	955.61132	-630.15836	-33.80631	904.56501	-353.25317	-220.19810	752.59438	-326.74382	-178.18770	785.27639	-255.31450	-57.24136	655.53985	-276.10418	6.59650	560.24437	-287.32725	-11.75239	543.32001	-253.45828	69.66499	869.85178	-876.58317	-44.36055	669.42268	-908.25877	5.97633	697.67189	-968.78716	131.10864	605.43027	-894.54427	210.13677	524.81709	-884.74555	202.35818	504.79067	-928.54160	-383.78032	760.65609	-509.40968	-359.05388	725.90360	-718.49634	-373.92385	752.27985	-508.79993	-366.90256	748.89374	-683.30229	
156	1.55000000	-59.04503	498.03561	-382.32634	-47.52154	369.40826	-404.39907	-289.99842	138.29666	-448.20112	-365.61567	126.55607	-514.27807	-202.43248	45.39636	-394.22306	-142.24450	59.29097	-456.11539	-50.79777	477.41010	-820.16266	-26.84538	365.45287	-791.32632	-276.23897	119.46245	-779.46836	-354.13230	102.23242	-720.97450	-169.62837	37.40083	-813.19902	-125.60817	54.25711	-746.70543	-100.63852	273.95698	-439.38674	-110.05898	386.11107	-362.84434	-160.32222	282.15583	-381.96014	-94.54611	399.00809	-841.77199	-133.05028	284.04173	-840.79968	-169.27268	726.28943	-430.65238	-79.29040	656.08614	-423.09143	-83.90688	620.55771	-368.42626	-222.86329	655.26259	-358.59042	-127.87934	586.94591	-355.86059	-181.88770	705.21851	-822.28435	-69.55545	622.92267	-820.23103	-243.04895	619.20382	-860.58656	-133.04926	537.87526	-855.54175	-288.85742	811.18750	-471.90460	-400.24214	908.37575	-573.34462	-244.04582	771.02004	-729.76560	-396.18177	905.97809	-673.17810	62.73620	1137.74453	-626.60810	45.43564	1036.87500	-443.02182	92.87275	1022.53995	-773.08927	92.01562	973.15363	-586.86987	93.57465	970.68919	-629.98602	-33.74349	922.74562	-349.86362	-215.35908	768.55425	-319.54914	-175.31577	805.78227	-248.67170	-42.21581	689.37919	-273.89753	30.98537	602.55328	-286.29166	16.15798	583.85655	-251.73866	74.51317	885.79059	-876.59092	-36.22661	682.56720	-910.95113	15.28929	713.06337	-970.31785	144.33304	636.88317	-884.52762	230.25791	566.65843	-866.27083	227.80962	544.26597	-909.27162	-378.35290	766.89237	-509.95494	-355.09269	733.09621	-719.36142	-368.91037	759.15448	-509.44720	-361.81029	754.96275	-684.01885	
157	1.56000000	-56.07435	498.48923	-385.87604	-45.46612	370.34128	-406.46610	-288.89557	139.69717	-447.67176	-365.17161	128.33409	-513.86863	-201.95078	46.05693	-393.83329	-142.09463	59.56485	-455.88799	-47.59154	479.95795	-816.78365	-24.73193	368.06609	-789.37721	-274.60555	122.60834	-779.37254	-352.38172	106.26409	-721.60749	-168.99704	38.11601	-813.32847	-124.96206	54.41538	-746.49676	-98.89260	275.18434	-440.33884	-108.11337	387.98606	-364.16287	-158.62170	283.76611	-382.79896	-92.14588	401.84833	-839.42331	-130.91834	287.09126	-839.68673	-163.32210	730.18754	-431.66329	-73.33302	659.74670	-424.61505	-79.84456	622.11636	-370.06295	-217.87655	659.58881	-359.85314	-123.46044	588.72712	-358.75373	-175.75100	709.85212	-821.00046	-64.47529	626.03947	-817.96258	-237.98607	624.43459	-859.22163	-129.03975	541.76098	-853.72222	-282.06577	815.85973	-471.66669	-397.29242	916.40941	-573.44955	-240.65817	777.76243	-730.55151	-393.15624	913.44493	-673.54913	61.53736	1154.27341	-627.53160	44.55535	1054.69183	-443.53108	94.40428	1040.23110	-772.46226	93.10387	990.21417	-585.87933	94.98770	987.80196	-630.10447	-33.98370	943.68608	-345.98581	-210.40766	787.51448	-310.46821	-172.33455	829.59227	-240.65496	-28.81159	727.85305	-271.43268	53.12950	650.99955	-285.08619	42.32600	631.17541	-249.63955	79.10131	903.49169	-876.09474	-27.13741	697.47992	-914.56569	25.21120	731.47954	-973.17093	155.55780	672.46813	-875.11065	246.99924	614.19347	-848.32229	250.45966	590.16351	-890.19081	-373.60532	773.32364	-510.13407	-352.02291	740.21805	-719.82921	-364.52155	766.06070	-509.61231	-357.30561	760.89012	-684.24419	
158	1.57000000	-53.36008	499.41925	-389.39140	-43.68243	371.37781	-408.60575	-288.00346	140.96395	-446.45909	-364.83789	129.72598	-512.78897	-201.53864	46.84113	-392.68497	-141.89592	59.70561	-455.52130	-43.90494	482.70598	-812.52748	-22.46898	370.97596	-787.97616	-272.58288	125.80782	-779.68591	-350.33773	110.72209	-722.22596	-168.25180	38.78939	-813.35249	-124.16649	54.60006	-746.47359	-97.24279	275.97658	-441.05478	-106.16069	389.54100	-365.67505	-157.01040	285.72770	-382.67526	-89.65421	405.24697	-838.05559	-128.57192	290.30839	-838.50929	-156.73417	733.45549	-432.81591	-67.64973	662.39225	-426.89179	-74.04331	622.08121	-372.26190	-212.39209	663.88540	-361.37568	-118.87741	590.59377	-361.38583	-169.36009	715.03071	-819.89350	-59.09230	629.61933	-815.88520	-232.70658	630.22753	-857.92861	-124.86732	546.21646	-852.29179	-274.27959	820.44866	-470.92709	-394.23921	924.87586	-573.61213	-236.05401	784.60588	-730.79301	-390.13489	921.54290	-673.73834	59.57098	1172.55948	-628.65155	43.32606	1075.34071	-444.25558	95.48841	1059.88540	-771.79478	93.93009	1009.50227	-585.32351	96.28367	1006.73402	-630.47335	-34.02497	967.67261	-341.91628	-204.53665	809.02899	-300.24546	-168.93507	856.56324	-232.06235	-17.10320	770.56634	-267.82302	72.46085	704.41827	-283.57740	65.91305	684.48121	-247.10028	83.84691	923.57265	-875.45873	-16.64168	714.65759	-919.17189	36.49328	752.96323	-977.04979	165.05174	711.85316	-866.92928	260.45372	666.71748	-831.64749	269.82274	641.93178	-872.15668	-368.25676	779.94606	-510.07110	-348.05681	747.56917	-720.03270	-359.09493	772.81183	-509.22244	-351.93368	766.99554	-683.93015	
159	1.58000000	-51.23153	500.71473	-392.24760	-42.13284	372.16161	-411.07827	-287.34206	141.94167	-445.17080	-364.50140	130.80690	-511.22599	-201.15032	47.15162	-391.74883	-141.65467	59.64241	-455.13178	-40.58654	486.01571	-809.36755	-20.16711	374.29458	-786.82493	-270.33157	128.85552	-780.49392	-348.12439	115.23977	-722.79130	-167.40943	39.37596	-813.32017	-123.28257	54.73735	-746.72871	-96.00245	276.49628	-442.12124	-104.30734	390.79311	-367.56453	-155.29330	288.02770	-381.93368	-87.24065	408.93824	-836.75448	-126.23089	293.82143	-837.51330	-149.60490	735.89634	-434.28262	-62.70056	662.90834	-429.00428	-68.37805	622.17756	-374.74666	-206.47740	668.16991	-363.00605	-114.80821	592.95896	-363.30789	-162.96422	720.46354	-818.44994	-53.77501	633.53716	-814.24401	-227.27706	636.52586	-856.65108	-120.68355	551.09261	-851.08681	-264.72376	825.53678	-471.10104	-390.95654	933.73600	-573.94833	-230.27713	793.38352	-732.10847	-387.13307	930.47661	-673.73808	56.86399	1192.57615	-630.00491	41.99033	1098.90042	-444.72924	96.24358	1081.78520	-771.22986	94.83474	1030.87193	-584.98979	97.55630	1027.47067	-630.70897	-33.48533	994.73127	-337.73146	-197.43178	833.12742	-288.97925	-164.77346	886.77471	-223.13252	-7.01086	817.09534	-263.05220	88.58903	761.87731	-281.86547	86.33429	742.90002	-244.27854	89.12833	946.33088	-875.46891	-5.23937	734.86977	-925.60202	49.35955	777.16754	-980.89985	173.15860	754.63911	-860.51365	270.47462	723.45624	-816.92507	285.54686	698.75187	-855.54953	-361.19007	786.71540	-510.76125	-342.80309	756.14541	-721.15487	-351.83365	779.72156	-509.68850	-345.13671	774.01235	-684.51005	
